<svg xmlns:xlink="http://www.w3.org/1999/xlink" xmlns="http://www.w3.org/2000/svg" class="icon icon-climate-neutral-mono" style="width: 50px; height: 24px" width="50"  height="24" ><defs><symbol viewBox="0 0 50 24" id="icon-climate-neutral-mono" xmlns="http://www.w3.org/2000/svg"><g clip-path="url(#bia)"><path d="M44.36 12.73v.65h-1.99v-3.27h.69v2.62h1.3ZM41.07 5.76h2.38v.63h-1.64v.66h1.61v.63h-1.61v.72h1.64v.63h-2.38V5.76ZM37.88 5.76h2.68v.64h-.97v2.63h-.75V6.4h-.97l.01-.64ZM32.62 10.75v-.64h2.49v.64h-.89v2.63h-.7v-2.63h-.9ZM30.56 5.76h1.02v.01l.79 1.98.79-1.99h1.03v3.27h-.75V6.78l-.9 2.25h-.34v-.02l-.9-2.24v2.26h-.75l.01-3.27ZM30.66 12.79c.44 0 .69-.27.69-.74v-1.94h.7v1.95c0 .87-.51 1.37-1.39 1.37-.88 0-1.4-.5-1.4-1.36v-1.96h.7v1.93c0 .48.25.74.7.74v.01ZM29.75 5.76H29v3.27h.75V5.76ZM26.4 5.76h.75v2.63h1.4v.64H26.4V5.76ZM26.38 10.11h2.22v.63h-1.53v.66h1.5v.63h-1.5v.72h1.53v.63h-2.22v-3.27ZM19.6 8.01c.11.27.11.56 0 .83-.11.27-.33.48-.6.59l-2.48 1-.03-.06c-.11-.27-.11-.56 0-.83.11-.27.33-.48.6-.59l2.48-1 .03.06ZM17.64 5.51l.05.05c.21.2.32.48.32.77 0 .29-.12.56-.32.77L15.8 8.96l-.05-.05c-.1-.1-.18-.22-.24-.35a.968.968 0 0 1-.08-.41c0-.14.03-.28.08-.41.06-.13.14-.25.24-.35l1.89-1.86v-.02ZM13.92 6.45l1.03-2.43.07.03a1.085 1.085 0 0 1 .59 1.42L14.58 7.9l-.06-.03c-.27-.11-.48-.32-.6-.59-.11-.27-.11-.56 0-.83ZM6.43 6.29c.1-.1.22-.18.36-.24.13-.05.28-.08.42-.08.14 0 .29.03.42.08s.26.13.36.24l1.89 1.86-.05.05c-.1.1-.22.18-.36.24-.13.05-.28.08-.42.08-.14 0-.29-.03-.42-.08a.95.95 0 0 1-.36-.24L6.38 6.34l.05-.05ZM4.88 8.91c.06-.13.14-.25.24-.35.1-.1.22-.18.36-.23.13-.05.28-.08.42-.08.14 0 .29.03.42.08L8.8 9.34l-.03.06c-.06.13-.14.25-.24.35-.1.1-.22.18-.36.23-.13.05-.28.08-.42.08-.15 0-.29-.03-.43-.08L4.85 8.97l.02-.06h.01ZM4.46 11.97c0-.29.12-.56.32-.77.21-.2.49-.32.78-.32h2.67v.07c0 .29-.12.56-.32.77-.21.2-.49.32-.78.32H4.46v-.07ZM5.26 14.92c-.11-.27-.11-.56 0-.83.11-.27.33-.48.6-.59l2.48-1 .03.06c.11.27.11.56 0 .83-.11.27-.33.48-.6.59l-2.48.98-.03-.05v.01ZM7.21 17.4l-.05-.05c-.1-.1-.18-.22-.24-.35a.968.968 0 0 1-.08-.41c0-.14.03-.28.08-.41.06-.13.14-.25.24-.35l1.89-1.86.05.05c.21.2.32.48.32.77 0 .29-.12.56-.32.77l-1.89 1.86v-.02ZM10.93 16.48 9.9 18.9l-.06-.03a.95.95 0 0 1-.36-.24c-.1-.1-.18-.22-.24-.35a.984.984 0 0 1-.08-.42c0-.14.03-.28.09-.41l1.03-2.43.06.03c.27.11.48.32.6.59.11.27.11.56 0 .83l-.01.01ZM11.31 7.45c-.13.05-.28.08-.42.08-.15 0-.29-.03-.43-.08-.13-.05-.26-.14-.36-.24-.1-.1-.18-.22-.24-.35L8.85 4.43l.06-.03a1.11 1.11 0 0 1 1.44.59l1.02 2.43-.07.02.01.01ZM13.01 19.28h-.07c-.29 0-.57-.11-.78-.32-.21-.2-.32-.48-.32-.77v-2.63h.07c.29 0 .57.11.78.32.21.2.32.48.32.77v2.63ZM13.01 7.34h-.07c-.29 0-.57-.12-.77-.32-.21-.2-.32-.47-.32-.76V3.63h.07c.29 0 .57.11.78.32.21.2.32.48.32.77v2.63l-.01-.01ZM15.93 18.5c-.13.05-.28.08-.42.08-.15 0-.29-.03-.42-.08a1.055 1.055 0 0 1-.6-.58l-1-2.44.06-.03c.13-.05.28-.08.42-.08.14 0 .29.03.42.09s.25.14.36.24c.1.1.18.22.24.35l1.02 2.43-.08.02ZM18.43 16.63c-.1.1-.22.18-.36.24-.13.05-.28.08-.42.08-.14 0-.29-.03-.42-.08a.95.95 0 0 1-.36-.24l-1.89-1.86.05-.05c.1-.1.22-.18.36-.24.13-.05.28-.08.42-.08.14 0 .29.03.42.08s.26.13.36.24l1.89 1.85-.05.06ZM19.98 14c-.08.2-.23.37-.41.49-.18.12-.39.18-.61.18-.14 0-.28-.03-.41-.08l-2.48-1.01.03-.06c.11-.27.33-.48.6-.58.27-.11.57-.11.84 0l2.47 1.01-.03.06V14ZM20.39 10.94c0 .29-.11.56-.32.77-.21.2-.49.32-.78.32h-2.68v-.06c0-.29.12-.56.32-.77.21-.2.49-.32.78-.32h2.68v.06ZM24.39 5.71a1.572 1.572 0 0 1 1.43.8v.02l-.64.31v-.02a.898.898 0 0 0-.33-.34.93.93 0 0 0-.46-.12 1.006 1.006 0 0 0-.72.31c-.09.1-.17.21-.21.34-.05.13-.07.26-.06.39 0 .13.01.27.06.39.05.13.12.24.21.34.09.1.21.18.33.23.12.05.26.08.4.08.16 0 .32-.04.46-.12.14-.08.25-.2.33-.34v-.02l.64.3v.02a1.598 1.598 0 0 1-1.44.8c-.23 0-.46-.03-.68-.11-.22-.08-.41-.21-.58-.36-.16-.16-.29-.35-.38-.56-.09-.21-.13-.44-.12-.66 0-.23.04-.45.12-.66.09-.21.22-.4.38-.56.17-.16.36-.28.58-.36.22-.08.45-.12.68-.11v.01ZM22.83 10.11h.7l1.39 2.05v-2.05h.7v3.27h-.66l-1.45-2.13v2.13h-.69l.01-3.27ZM24.7 18.3a.771.771 0 0 1-.68.36c-.24 0-.46-.09-.63-.26a.854.854 0 0 1-.26-.62c0-.23.09-.46.26-.62.17-.16.4-.26.63-.26.14 0 .27.03.39.09s.22.16.29.27l.04.06-.31.16-.03-.05a.572.572 0 0 0-.16-.15.406.406 0 0 0-.21-.05c-.13.02-.26.08-.35.18-.09.1-.14.23-.14.36 0 .13.05.26.14.36.09.1.21.17.35.18.07 0 .15-.02.21-.05.07-.04.12-.09.16-.15l.03-.05.31.17-.04.04v.03ZM26.75 17.26h-.84v.34h.82v.33h-.82v.37h.84v.33h-1.2v-1.7h1.2v.33ZM31.07 17.26h-.5v1.37h-.36v-1.37h-.5v-.33h1.36v.33ZM32.27 16.93h-.36v1.7h.36v-1.7ZM34.43 17.26h-.84v.34h.82v.33h-.82v.7h-.36v-1.7h1.2v.33ZM35.64 16.93h-.36v1.7h.36v-1.7ZM37.79 17.26h-.83v.34h.82v.33h-.82v.37h.83v.33H36.6v-1.7h1.19v.33ZM44.4 15.37H23.11v-.4H44.4v.4ZM35.93 5.76h.91l1.3 3.27h-.81l-.21-.55h-1.46l-.21.55h-.82l1.29-3.27h.01Zm.46.67-.53 1.41h1.05l-.52-1.41ZM38.22 13.38h-.79l-.61-1.16h-.45v1.16h-.69v-3.26h1.46c.14 0 .28.02.42.07.13.05.25.13.35.23.1.1.18.22.22.35.05.13.07.27.06.41 0 .58-.34.88-.67.97l.69 1.24.01-.01Zm-1.18-2.64h-.67v.85h.67c.12 0 .23-.05.31-.13.08-.08.13-.19.13-.3 0-.11-.05-.22-.13-.3a.439.439 0 0 0-.31-.13v.01ZM40.66 10.13l1.2 3.25h-.75l-.19-.55h-1.35l-.19.55h-.75l1.2-3.26h.83v.01Zm.05 2.07-.48-1.41-.49 1.41h.97ZM28.59 18.63l-.37-.61h-.2v.61h-.36v-1.7h.73c.08 0 .15 0 .22.03s.14.07.19.12c.05.05.1.11.12.18.03.07.04.14.04.22 0 .11-.03.22-.09.31-.07.09-.16.16-.27.19l.42.65h-.43Zm-.25-1.38H28v.43h.34s.06 0 .09-.01c.03 0 .06-.03.08-.05.02-.02.04-.05.05-.07.01-.03.02-.06.02-.09s0-.06-.02-.09c-.01-.03-.03-.05-.05-.07a.218.218 0 0 0-.08-.05c-.03 0-.06-.01-.09-.01v.01ZM39.32 18.63h-.63v-1.7h.63a.857.857 0 0 1 .86.85.857.857 0 0 1-.86.85Zm0-1.37h-.27v1.04h.27c.07 0 .14 0 .21-.03a.5.5 0 0 0 .17-.11c.05-.05.09-.11.11-.17.02-.06.04-.13.03-.2 0-.07 0-.14-.03-.2a.386.386 0 0 0-.11-.17.452.452 0 0 0-.17-.11c-.07-.02-.14-.04-.21-.03v-.02Z"></path><path d="M50 23.24H0V0h50v23.24ZM.55 22.68h48.9V.55H.55v22.13Z"></path></g><defs><clipPath id="bia"><path d="M0 0h50v23.24H0z"></path></clipPath></defs></symbol></defs><use xlink:href="#icon-climate-neutral-mono" fill-opacity="0.6" fill="#FFFFFF"></use></svg>