<svg xmlns:xlink="http://www.w3.org/1999/xlink" xmlns="http://www.w3.org/2000/svg" class="icon icon-certified-evergreen-mono" style="width: 30px; height: 32px" width="30"  height="32" ><defs><symbol viewBox="0 0 30 32" id="icon-certified-evergreen-mono" xmlns="http://www.w3.org/2000/svg"><g clip-path="url(#bea)"><path d="M21.846 25.71H5.79V6.175h16.057v19.537ZM8.9 9.52V22.5h9.87v-2.543h-7.071V17.28h6.268v-2.677h-6.29v-2.542h7.093V9.519h-9.87ZM3.796 3.217c-.238 0-.457-.04-.66-.12a1.578 1.578 0 0 1-.524-.336 1.562 1.562 0 0 1-.345-.51 1.625 1.625 0 0 1-.125-.641c0-.232.042-.446.125-.641A1.549 1.549 0 0 1 3.14.122c.202-.08.421-.12.66-.12.237 0 .444.04.646.116.202.076.372.191.51.345l-.213.213a1.164 1.164 0 0 0-.43-.287 1.425 1.425 0 0 0-.506-.088c-.19 0-.365.032-.528.098a1.263 1.263 0 0 0-.707.692c-.068.159-.101.331-.101.521a1.301 1.301 0 0 0 .384.938c.12.12.262.212.424.276.163.064.338.098.528.098s.35-.031.506-.091c.157-.06.3-.157.43-.29l.212.214c-.139.153-.309.269-.51.347a1.77 1.77 0 0 1-.65.118v-.005ZM5.983 2.9h1.901v.289H5.648V.027h2.168v.289H5.981V2.9h.002ZM5.947 1.44h1.671v.285H5.947v-.285ZM8.648 3.189V.027h1.183c.268 0 .498.043.692.128a.993.993 0 0 1 .446.37c.104.161.155.357.155.586 0 .228-.052.414-.155.575-.105.16-.253.285-.446.37a1.694 1.694 0 0 1-.692.13h-.998l.149-.155v1.156h-.335l.001.002Zm.335-1.13-.149-.158h.99c.315 0 .556-.07.72-.207.164-.14.245-.333.245-.582 0-.249-.081-.448-.246-.587-.164-.138-.404-.208-.72-.208h-.989L8.983.16v1.9Zm1.825 1.13-.814-1.147h.362l.817 1.147h-.365ZM12.46 3.189V.316h-1.11v-.29h2.557v.29h-1.11v2.873h-.336ZM14.417 3.189V.027h.335v3.162h-.335ZM16.094 3.189h-.335V.027h2.168v.289h-1.835v2.873h.002Zm-.037-1.631h1.672v.289h-1.671v-.29ZM18.596 3.189V.027h.334v3.162h-.334ZM20.271 2.9h1.902v.289h-2.236V.027h2.168v.289H20.27V2.9h.001Zm-.036-1.459h1.672v.285h-1.672v-.285ZM22.937 3.189V.027h1.153c.337 0 .633.067.887.2.255.134.453.32.595.558.142.239.212.513.212.822 0 .31-.07.585-.212.822-.142.238-.34.424-.595.558-.254.134-.55.2-.887.2h-1.153v.002Zm.334-.29h.802c.28 0 .523-.054.73-.164.205-.11.366-.262.48-.456a1.3 1.3 0 0 0 .172-.67c0-.253-.057-.481-.171-.674a1.202 1.202 0 0 0-.482-.453 1.532 1.532 0 0 0-.73-.165h-.8V2.9ZM.71 31.316h1.683v.574H0V28.8h2.336v.573H.711v1.943ZM.658 30.04h1.488v.56H.658v-.56H.657ZM3.838 31.89 2.5 28.8h.777l1.166 2.737h-.455l1.183-2.738h.71L4.543 31.89h-.707.002ZM6.84 31.316h1.683v.574H6.129V28.8h2.336v.573H6.841v1.943Zm-.053-1.276h1.488v.56H6.787v-.56ZM9.083 31.89V28.8h1.338c.277 0 .516.043.716.134.201.09.355.218.463.387.109.169.164.367.164.597 0 .23-.055.432-.164.598a1.028 1.028 0 0 1-.463.38c-.2.087-.439.13-.716.13h-.944l.326-.31v1.176h-.72v-.002Zm.72-1.094-.326-.34h.905c.219 0 .383-.047.496-.142a.488.488 0 0 0 .167-.398.484.484 0 0 0-.167-.394c-.113-.092-.277-.14-.495-.14h-.906l.326-.34v1.754Zm1.25 1.094-.778-1.121h.769l.777 1.121h-.768ZM13.812 31.942c-.245 0-.47-.038-.676-.117a1.542 1.542 0 0 1-1.01-1.482c0-.232.042-.445.126-.64a1.49 1.49 0 0 1 .356-.508c.154-.143.333-.255.54-.333.205-.077.431-.118.679-.118.274 0 .52.046.74.137.22.09.404.223.554.397l-.455.424a1.149 1.149 0 0 0-.37-.267 1.087 1.087 0 0 0-.438-.086c-.148 0-.283.024-.407.072a.909.909 0 0 0-.527.518c-.048.12-.073.255-.073.402 0 .147.024.273.073.394a.907.907 0 0 0 .207.316c.09.089.195.158.319.208.121.05.257.075.404.075.147 0 .278-.024.413-.071.134-.047.264-.125.39-.235l.408.517a1.82 1.82 0 0 1-.588.293c-.22.067-.441.1-.662.1l-.003.005Zm1.25-1.814v1.421l-.653-.106v-.781h-.518v-.535h1.171v.001ZM15.715 31.89V28.8h1.338c.277 0 .515.043.716.134.2.09.355.218.463.387.108.167.163.367.163.597 0 .23-.055.432-.163.598a1.028 1.028 0 0 1-.463.38c-.2.087-.439.13-.716.13h-.945l.327-.31v1.176h-.72v-.002Zm.72-1.094-.327-.34h.906c.218 0 .383-.047.495-.142a.488.488 0 0 0 .168-.398.484.484 0 0 0-.168-.394c-.112-.092-.277-.14-.495-.14h-.906l.327-.34v1.754Zm1.25 1.094-.778-1.121h.768l.778 1.121h-.768ZM19.664 31.316h1.682v.574h-2.394V28.8h2.336v.573h-1.624v1.943Zm-.054-1.276h1.488v.56H19.61v-.56ZM22.617 31.316h1.682v.574h-2.394V28.8h2.336v.573h-1.624v1.943Zm-.053-1.276h1.488v.56h-1.488v-.56ZM24.861 31.89V28.8h.591l1.824 2.224h-.287V28.8h.706v3.091h-.591l-1.824-2.225h.286v2.225h-.706.001ZM28.469 31.599v-.65h.295c.06 0 .111.009.154.029.043.02.077.046.1.083a.237.237 0 0 1 .035.128c0 .05-.012.092-.034.129a.22.22 0 0 1-.1.081.386.386 0 0 1-.155.028h-.195l.083-.077v.251h-.185l.002-.002Zm.184-.23-.083-.085h.185c.039 0 .067-.008.087-.025.02-.018.03-.04.03-.071 0-.031-.01-.052-.03-.07-.02-.017-.048-.025-.087-.025h-.185l.083-.085v.362Zm.217.23-.162-.237h.196l.163.237h-.197Z"></path><path d="M28.738 30.729a.535.535 0 1 1 0 1.07.535.535 0 0 1 0-1.07Zm0-.2a.735.735 0 1 0-.001 1.47.735.735 0 0 0 0-1.47Z"></path></g><defs><clipPath id="bea"><path d="M0 0h29.474v32H0z"></path></clipPath><linearGradient id="dwa" x1="0%" y1="50%" y2="50%"><stop offset="0%" stop-color="#08DAD8"></stop><stop offset="100%" stop-color="#09F"></stop></linearGradient></defs></symbol></defs><use xlink:href="#icon-certified-evergreen-mono" fill-opacity="0.6" fill="#FFFFFF"></use></svg>