<svg xmlns:xlink="http://www.w3.org/1999/xlink" xmlns="http://www.w3.org/2000/svg" class="icon icon-conservation-alliance-mono" style="width: 60px; height: 22px" width="60"  height="22" ><defs><symbol viewBox="0 0 60 22" id="icon-conservation-alliance-mono" xmlns="http://www.w3.org/2000/svg"><path d="M6.535 15.878c.03-.004.007-.008 0 0ZM17.465 11.854l-.71-1.25-.479-.842v-.265l-.585-1.121.167-.194-.114-.25.082-.33-.34-.548-.011-.312-.103-.2-.188-.477-.242.512.054.197-.387.792.046.33-.138.35.163.198-.163.365-1.026-1.171-.908-.928-.465-.244-.294-.73-.4-.24-.402-.452-.425.452-.266.204-1.143 1.43-.241.146-.45.942-.16-.319.131-.365-.241-1.096.1-.348-.26-.559-.053-.412-.16-.584-.38 1.208.072.33-.277.773.135.18-.188.512.081.218-.266.695.082.33-.266.659-.252-.953V8.05l.145-.258-.372-1.14.202-.032-.046-.254-.397-1.207-.401 1.426.135.1-.412 1.4.117.137-.773 2.421.184.104-.418.957v.132a64.922 64.922 0 0 1 6.375-.311 64.213 64.213 0 0 1 6.53.33Z"></path><path d="M16.776 12.922c-.674-.097.316-.727.646-.928l-.741-.072a66.167 66.167 0 0 0-5.744-.243 64.8 64.8 0 0 0-5.772.243l-.628.061v.115s.04.09.167.276c.032.043.064.09.107.143.035.047.078.1.124.154.078.097 7.464.015.064.226-.057 0-.107.107-.192.143-.15.061-.32.097-.323.161 0 .033.046.097.114.176.07.086.134.29.255.29 2.537 0 .032.032.185.222.081.104.11.187.024.194-.808.053.011.09.16.197.06.043.128.09.188.136.188.14.337.297.131.294-1.05-.022-.205.05-.117.103a.49.49 0 0 1 .089.172c.028.076.38.187-.287.276-.068.011.936.154.454.237-.415.072-1.03.226-.156.269.113.007 1.362.16.322.16-.042 0-.184.019-.24.022-.171.01.091.237-.065.237-.6 0 .327.197.26.204-.104.014.077.265-.004.297a1.828 1.828 0 0 1-.12.057c-.192.026.329-.007.194.133-.05.05-.358.115.022.133.046.003-.33.057-.252.057.014 0 .35.104.369.104.138 0-.185-.219.067-.28.12-.028.025-.179.103-.19.262-.043.365-.236.298-.25-.703-.133-.01-.222.035-.251.472-.308.114-.233.036-.29-.018-.014-.021-.022-.018-.029a1.14 1.14 0 0 1-.188.004c-.124-.004.057-.237-.067-.255-.373-.06.184-.172.234-.25.053-.083-.128-.215-.057-.237.202-.054.44.068.447-.075 0-.01-.184-.022-.184-.036 0-.1-.447-.05-.469-.168-.007-.04.206-.015.156-.09-.11-.168-.34-.2-.124-.243.06-.011.153-.018.288-.018.443.007.34-.061.205-.126-.11-.053-.244-.104-.124-.104.103 0 .146-.068.167-.154.032-.143-1.43-.308.007-.33.156-.003-.564.112.287.112 5.265 0 .38.057.153.09-.153.02-.273.064-.277.1-.003.057.156.132.305.175.103.032.124.208-.284.262-.124.018-.177.068-.184.136-.007.068.202.06.273.132.089.09.053.248.181.255.362.082.025.107-.082.165-.053.028-.042.225.2.21.173.03.123.123-.012.173-.138.05.206.093-.134.132-.06.008.213.122-.107.144-.007.071.025.147.114.154.042.053.177.071.22.118.06.064.05.165.05.165s.429.179.12.233a1.178 1.178 0 0 1-.188.014c-.117 0-.33.186 0 .186.213 0 .103.111.128.133.156.132.088.272-.06.272-.476 0-.057.072.205.172.089.036.064.136.11.14.092.007.135-.265.234-.273.195-.014.12-.118-.074-.168-.387-.093-.107-.276.053-.308.078-.018-1.082-.111.163-.193.082-.004.032-.309.078-.33.114-.057-.475-.294.195-.294.156 0 .135-.118-.266-.118-.27 0-.276-.065-.081-.09.24-.028-.242-.397.23-.38.089.004.309-.046.174-.057-.528-.043-.082-.268-.223-.311-.142-.043-1.444-.298.16-.24 1.195.043.155.16.453.175.469.025 1.214.004 1.224.043.032.118-1.284.161-1.426.172-.227.018.082.226.22.269.131.043 1.373.11.224.154-.568.021 1.55.383.521.483-1.032.104.124.198.245.226.475.154-.348.276.184.301.568 0-.131.133-.035.133.677.032 1.405.018.603.175-.49.097-.433.186-.163.19.386.007.465.219.543.23.102.014.06-.137.12-.155.206-.064.036-.308.227-.362 0 0 1.033-.146.401-.182-.631-.036 1.859-.509.294-.548-1.564-.04.465-.183.465-.183s.795-.222.316-.24c-4.615-.183.564-.168.642-.226.085-.068-.51-.147-.309-.265.071-.04.486-.082.56-.086.338-.021.412-.157.164-.175-.55-.043-.387-.251.068-.377.085-.021-2.807-.146-1.175-.19.071-.003-.326-.164.156-.164.827 0-.223.15 1.519.15.667 0-.568.19.163.273.73.082.131.057-.163.146-.295.09-.114.219.142.266.252.046.117.229-.046.247-.181.021.248.286.092.28-.295-.015.241.304.294.314.103.022.153.14-.053.147-.128.004.01.165.138.287.078.075.103.161.156.14.054-.022-.149-.197-.07-.197.209 0 .02-.198.205-.201.37-.007-.106-.104.103-.15.21-.047-.206-.244.01-.233.217.01-.155-.326.341-.412.497-.086-.081-.248-.081-.248s-2.49-.19.113-.19c.291 0-.33-.143-.167-.143.668-.014-.35-.19.235-.19.259 0 .266-.104.326-.11.312-.022.465-.158-.241-.158-1.37-.004-.05-.394.27-.384.319.011-.146-.078 0-.197.056-.046-13.964-.236.457-.236.316.004.514-.319.028-.387ZM20.64 18.03l-.394 1.308h-.862l1.465-4.614h1.064l1.483 4.614h-.894l-.415-1.307H20.64Zm1.309-.637-.359-1.136c-.088-.28-.163-.594-.23-.863h-.014c-.068.265-.135.587-.217.863l-.35 1.136h1.17ZM24.613 14.477h-.84v4.861h.84v-4.861ZM26.16 14.477h-.841v4.861h.84v-4.861ZM27.753 15.072c0 .254-.185.45-.476.45a.44.44 0 0 1-.46-.45c0-.262.187-.46.467-.46.284 0 .462.201.469.46Zm-.89.93h.84v3.336h-.84v-3.335ZM30.963 18.536c0 .3.014.594.046.802h-.752l-.053-.369h-.021c-.203.262-.55.444-.976.444-.663 0-1.036-.487-1.036-.992 0-.842.738-1.264 1.959-1.26v-.055c0-.218-.09-.58-.671-.58-.326 0-.663.104-.887.247l-.163-.548c.245-.15.67-.294 1.192-.294 1.057 0 1.362.677 1.362 1.405v1.2Zm-.812-.828c-.59-.014-1.153.115-1.153.623 0 .33.21.48.475.48a.672.672 0 0 0 .65-.458.58.58 0 0 0 .028-.186v-.459ZM31.609 16.995c0-.383-.007-.706-.029-.992h.731l.04.502h.02c.142-.262.5-.577 1.05-.577.575 0 1.175.376 1.175 1.43v1.977h-.834v-1.881c0-.48-.177-.842-.631-.842-.334 0-.564.24-.65.494a.83.83 0 0 0-.035.273v1.956h-.837v-2.34ZM37.714 19.234c-.177.083-.521.18-.936.18-1.03 0-1.703-.67-1.703-1.706 0-1 .677-1.78 1.837-1.78.306 0 .618.068.806.157l-.15.63a1.474 1.474 0 0 0-.63-.128c-.64 0-1.019.473-1.012 1.082 0 .684.44 1.075 1.011 1.075.291 0 .497-.061.657-.13l.12.62ZM38.665 17.905c.021.602.49.864 1.018.864.387 0 .663-.054.915-.15l.121.58a3.102 3.102 0 0 1-1.153.21c-1.071 0-1.703-.67-1.703-1.69 0-.924.557-1.795 1.614-1.795 1.079 0 1.423.889 1.423 1.623 0 .158-.014.28-.029.355h-2.206v.003Zm1.45-.587c.008-.308-.127-.814-.684-.814-.514 0-.73.473-.766.814h1.45ZM22.9 13.116c-.195.103-.632.21-1.178.21-1.451 0-2.33-.924-2.33-2.328 0-1.519 1.042-2.436 2.44-2.436.55 0 .94.115 1.11.204l-.184.67a2.179 2.179 0 0 0-.894-.179c-.93 0-1.6.588-1.6 1.698 0 1.014.589 1.662 1.593 1.662.34 0 .692-.068.908-.172l.135.67ZM26.408 11.557c0 1.225-.855 1.773-1.696 1.773-.936 0-1.653-.652-1.653-1.72 0-1.095.713-1.765 1.707-1.765.986 0 1.642.698 1.642 1.712Zm-2.487.032c0 .645.312 1.129.82 1.129.475 0 .805-.473.805-1.143 0-.52-.23-1.114-.798-1.114-.59 0-.827.577-.827 1.128ZM26.898 10.912c0-.383-.007-.706-.029-.992h.731l.04.501h.02c.142-.261.5-.576 1.05-.576.575 0 1.171.376 1.171 1.43v1.98h-.834v-1.88c0-.48-.177-.842-.631-.842-.334 0-.564.24-.65.49a.838.838 0 0 0-.035.276v1.956h-.84v-2.343h.007ZM30.502 12.481c.192.115.55.24.848.24.365 0 .528-.15.528-.369 0-.225-.134-.34-.542-.487-.642-.226-.916-.58-.909-.97 0-.588.483-1.047 1.25-1.047.365 0 .684.097.876.197l-.164.595a1.474 1.474 0 0 0-.699-.19c-.298 0-.46.143-.46.348 0 .211.155.315.574.465.596.219.873.527.88 1.021 0 .602-.468 1.046-1.341 1.046-.401 0-.76-.104-1.004-.24l.163-.609ZM33.762 11.822c.021.602.49.864 1.018.864.387 0 .664-.054.916-.15l.12.58a3.03 3.03 0 0 1-1.153.21c-1.071 0-1.703-.67-1.703-1.69 0-.924.557-1.795 1.615-1.795 1.078 0 1.422.889 1.422 1.623 0 .158-.014.28-.028.355h-2.207v.003Zm1.451-.587c.007-.308-.128-.814-.684-.814-.515 0-.731.473-.767.814h1.451ZM36.476 10.995c0-.452-.007-.774-.028-1.075h.723l.029.638h.028c.163-.473.55-.713.901-.713.082 0 .128.007.195.021v.796a1.09 1.09 0 0 0-.244-.03c-.401 0-.67.262-.745.639a1.402 1.402 0 0 0-.029.261v1.723h-.834v-2.26h.004ZM39.367 9.92l.536 1.69c.096.295.163.563.224.835h.02c.061-.272.136-.533.224-.834l.522-1.691h.88l-1.26 3.335h-.82l-1.227-3.332h.901V9.92ZM44.607 12.453c0 .3.014.594.046.799h-.752l-.053-.37h-.021c-.203.262-.55.445-.976.445-.663 0-1.036-.487-1.036-.992 0-.842.738-1.265 1.958-1.262v-.053c0-.219-.088-.58-.67-.58-.326 0-.663.103-.887.247l-.163-.549c.245-.15.67-.293 1.192-.293 1.057 0 1.362.677 1.362 1.404v1.204Zm-.812-.828c-.59-.014-1.153.115-1.153.623 0 .33.21.48.475.48a.672.672 0 0 0 .65-.458.58.58 0 0 0 .028-.186v-.459ZM46.133 9.064v.856h.794v.63h-.794v1.473c0 .405.11.616.425.616.156 0 .23-.014.327-.04l.014.645c-.12.047-.337.09-.603.09-.305 0-.564-.111-.72-.28-.178-.193-.26-.494-.26-.93v-1.566h-.475v-.631h.476v-.616l.816-.247ZM48.247 8.988c0 .255-.185.452-.475.452a.44.44 0 0 1-.462-.452c0-.261.192-.458.469-.458.287 0 .46.2.468.458Zm-.887.932h.84v3.335h-.84V9.92ZM52.036 11.557c0 1.225-.855 1.773-1.696 1.773-.937 0-1.653-.652-1.653-1.72 0-1.095.713-1.765 1.71-1.765.982 0 1.639.698 1.639 1.712Zm-2.487.032c0 .645.312 1.129.82 1.129.475 0 .805-.473.805-1.143 0-.52-.23-1.114-.798-1.114-.59 0-.827.577-.827 1.128ZM52.525 10.912c0-.383-.007-.706-.028-.992h.73l.04.501h.021c.142-.261.5-.576 1.05-.576.575 0 1.174.376 1.174 1.43v1.98h-.833v-1.88c0-.48-.178-.842-.632-.842-.333 0-.564.24-.649.49a.838.838 0 0 0-.036.276v1.956h-.84v-2.343h.003ZM23.073 2.59h.841v1.985h.014c.103-.158.245-.294.412-.384.163-.096.358-.15.571-.15.564 0 1.153.376 1.153 1.444v1.963h-.834v-1.87c0-.487-.177-.85-.638-.85a.682.682 0 0 0-.646.474.688.688 0 0 0-.035.254v1.992h-.841V2.59h.003ZM27.345 6.019c.02.601.49.863 1.018.863.387 0 .663-.054.915-.15l.12.58a3.03 3.03 0 0 1-1.152.211c-1.072 0-1.703-.67-1.703-1.69 0-.925.557-1.796 1.614-1.796 1.078 0 1.423.889 1.423 1.623 0 .158-.015.28-.029.355h-2.206v.004Zm1.45-.592c.008-.308-.127-.813-.684-.813-.515 0-.73.473-.766.813h1.45ZM20.69 3.54h-1.303v-.706h3.449v.705h-1.313v3.909h-.834V3.539Z"></path></symbol></defs><use xlink:href="#icon-conservation-alliance-mono" fill-opacity="0.6" fill="#FFFFFF"></use></svg>