<svg xmlns:xlink="http://www.w3.org/1999/xlink" xmlns="http://www.w3.org/2000/svg" class="icon icon-great-place-to-work-mono" style="width: 19px; height: 32px" width="19"  height="32" ><defs><symbol viewBox="0 0 19 32" id="icon-great-place-to-work-mono" xmlns="http://www.w3.org/2000/svg"><g clip-path="url(#dla)"><path fill-rule="evenodd" clip-rule="evenodd" d="m1 26.348 8.4 4.517 8.4-4.517V1H1v25.348ZM18.8 0v26.946L9.4 32 0 26.946V0h18.8Z"></path><path d="M17.736 28.596h-.184v.401h-.168v-.401h-.182v-.162h.534v.162Zm.747.401h-.169v-.232l-.127.226h-.075l-.127-.226v.232h-.168v-.563h.143l.19.34.19-.34h.143v.563Z" fill="#002171"></path><path fill-rule="evenodd" clip-rule="evenodd" d="M0 0h18.8v18.768H0V0Zm4.975 3.564v-.232H3.463v.525h.912c-.108.356-.418.571-.878.571-.31 0-.56-.09-.749-.275a.95.95 0 0 1-.28-.705.958.958 0 0 1 .986-.992c.357 0 .667.172.81.417l.507-.293c-.258-.425-.749-.7-1.313-.7-.447 0-.822.15-1.127.455a1.529 1.529 0 0 0-.452 1.113c0 .434.15.804.456 1.109.306.3.693.45 1.158.45.435 0 .792-.133 1.067-.399.276-.266.414-.614.414-1.044Zm.889-.395c.098-.275.343-.413.621-.413v.62a.59.59 0 0 0-.433.102c-.127.09-.188.237-.188.443v1.027h-.528V2.799h.528v.37Zm2.12 1.336c-.332 0-.535-.133-.608-.404H9c.013-.081.021-.154.021-.228 0-.322-.103-.588-.31-.807a1.015 1.015 0 0 0-.779-.327 1.104 1.104 0 0 0-1.136 1.134c0 .327.108.598.323.812.215.215.5.323.856.323.414 0 .728-.155.939-.46l-.448-.258c-.108.142-.271.215-.482.215Zm-.052-1.267a.52.52 0 0 1 .533.433H7.368c.064-.275.267-.433.564-.433Zm3.09-.439h.555v2.149h-.555v-.254c-.168.21-.4.314-.702.314a.959.959 0 0 1-.74-.327 1.15 1.15 0 0 1-.305-.808c0-.318.103-.584.305-.803a.982.982 0 0 1 .74-.331c.289 0 .534.103.702.313V2.8Zm-.598 1.68a.578.578 0 0 0 .598-.606.576.576 0 0 0-.172-.433.565.565 0 0 0-.426-.172.565.565 0 0 0-.426.172.589.589 0 0 0-.168.433c0 .177.056.323.168.439a.578.578 0 0 0 .426.167Zm2.487-1.147h.487V2.8h-.487v-.601l-.555.167V2.8h-.374v.533h.374v.894c0 .588.28.807 1.042.721v-.502c-.319.017-.487.013-.487-.22v-.893ZM3.4 5.717c.288 0 .533.1.731.293a.965.965 0 0 1 .297.717.965.965 0 0 1-.297.718 1.01 1.01 0 0 1-.731.292h-.53v.988h-.593V5.717H3.4Zm0 1.466c.254 0 .439-.198.439-.456 0-.257-.185-.455-.44-.455H2.87v.91h.53Zm1.433-1.438h.555v2.98h-.555v-2.98Zm2.785.832h.555v2.148h-.555V8.47c-.168.21-.4.314-.702.314a.96.96 0 0 1-.74-.327 1.15 1.15 0 0 1-.306-.807c0-.318.103-.585.306-.804a.983.983 0 0 1 .74-.33c.288 0 .534.102.702.313v-.253Zm-.599 1.68a.578.578 0 0 0 .599-.606.576.576 0 0 0-.173-.434.565.565 0 0 0-.426-.172.565.565 0 0 0-.426.172.589.589 0 0 0-.167.434c0 .176.056.322.167.438a.578.578 0 0 0 .426.168Zm1.632-.606c0 .322.107.589.323.808.22.219.49.327.813.327.417 0 .783-.22.973-.56l-.482-.274c-.087.176-.272.283-.495.283a.562.562 0 0 1-.414-.163.587.587 0 0 1-.163-.42c0-.345.245-.59.577-.59.22 0 .404.112.49.288l.478-.279c-.176-.34-.547-.554-.964-.554-.323 0-.594.107-.813.326-.216.22-.323.486-.323.808Zm2.995.228c.073.27.275.404.607.404.21 0 .374-.073.482-.215l.447.257c-.21.305-.525.46-.938.46-.357 0-.641-.107-.856-.322a1.1 1.1 0 0 1-.323-.812A1.103 1.103 0 0 1 12.2 6.517c.314 0 .577.107.779.326.207.22.31.486.31.808 0 .073-.009.146-.022.228h-1.622Zm1.089-.43a.52.52 0 0 0-.534-.434c-.297 0-.499.159-.564.434h1.098Zm-8.638 2.735v-.539H1.88v.54h.81v2.317h.593v-2.318h.814Zm.925 2.379c-.318 0-.59-.108-.81-.327-.219-.22-.326-.49-.326-.808 0-.318.107-.584.327-.803.22-.22.49-.331.809-.331.318 0 .59.111.809.33.22.22.331.486.331.804a1.1 1.1 0 0 1-.331.808c-.22.219-.49.327-.81.327Zm0-.542a.577.577 0 0 0 .585-.593.577.577 0 0 0-.585-.593.565.565 0 0 0-.581.593.565.565 0 0 0 .581.593Zm-3.06 1.427.843 3.008h.676l.564-1.985.568 1.985h.676l.843-3.008h-.624l-.577 2.23-.632-2.23H3.79l-.629 2.23-.576-2.23h-.624Zm5.255 3.068c-.318 0-.59-.108-.81-.327-.219-.219-.326-.49-.326-.807 0-.318.107-.585.327-.804.22-.22.49-.33.809-.33.318 0 .59.11.809.33.22.22.331.486.331.804a1.1 1.1 0 0 1-.331.807c-.22.22-.49.327-.81.327Zm0-.542a.576.576 0 0 0 .585-.593.576.576 0 0 0-.585-.592.565.565 0 0 0-.581.593.565.565 0 0 0 .581.593Zm2.741-1.71c-.292 0-.55.138-.654.413v-.37h-.555v2.149h.555v-1.027c0-.206.065-.353.198-.443a.647.647 0 0 1 .456-.103v-.619Zm2.393 2.192h-.645l-.784-.976v.976h-.555v-3.008h.555v1.805l.74-.946h.663l-.864 1.062.89 1.087Zm.69-.873a.484.484 0 0 0-.487.485c0 .274.215.482.487.482a.482.482 0 0 0 .486-.484.482.482 0 0 0-.486-.483Zm0 .079c.232 0 .399.166.399.404a.39.39 0 0 1-.4.405.39.39 0 0 1-.398-.403c0-.238.167-.407.399-.407Zm.002.16h-.17v.478h.106v-.186h.05l.117.186h.11l-.128-.203c.057-.018.099-.057.099-.13v-.001c0-.099-.072-.145-.184-.145Zm.08.15c0 .046-.028.07-.082.07h-.062v-.14h.062c.052 0 .083.018.083.068v.002Z"></path><path d="M2.055 21.734c0-.761.565-1.352 1.354-1.352.476 0 .896.242 1.12.613l-.443.256c-.127-.23-.38-.371-.677-.371-.51 0-.844.352-.844.854 0 .501.334.85.844.85.297 0 .554-.141.677-.368l.442.256c-.22.372-.64.613-1.12.613-.788 0-1.353-.594-1.353-1.351ZM5.659 22.65a.516.516 0 0 0 .416-.185l.387.223c-.175.252-.454.397-.81.397-.626 0-1.02-.427-1.02-.98 0-.553.398-.98.982-.98.55 0 .941.434.941.98 0 .07-.007.134-.018.197H5.135c.066.245.27.349.524.349Zm.416-.72a.451.451 0 0 0-.46-.375c-.257 0-.432.138-.488.375h.948ZM7.842 21.14v.534c-.25-.03-.565.082-.565.472v.887h-.48v-1.857h.48v.32c.096-.253.33-.356.565-.356ZM8.872 21.637v.772c0 .201.145.204.42.19v.434c-.673.075-.9-.122-.9-.624v-.772h-.324v-.46h.324v-.375l.48-.145v.52h.42v.46h-.42ZM9.593 20.66a.3.3 0 0 1 .294-.296c.16 0 .298.137.298.297 0 .16-.134.293-.298.293a.294.294 0 0 1-.294-.293Zm.056.517h.48v1.856h-.48v-1.856ZM11.181 21.158v.019h.395v.46h-.395v1.396h-.48v-1.396h-.267v-.46h.268v-.019c0-.512.282-.813.874-.776v.46c-.25-.018-.395.064-.395.316ZM11.821 20.66a.3.3 0 0 1 .294-.296c.16 0 .297.137.297.297 0 .16-.134.293-.297.293a.294.294 0 0 1-.294-.293Zm.056.517h.48v1.856h-.48v-1.856ZM13.68 22.65a.515.515 0 0 0 .417-.185l.386.223c-.174.252-.453.397-.81.397-.625 0-1.02-.427-1.02-.98 0-.553.399-.98.983-.98.55 0 .94.434.94.98 0 .07-.007.134-.018.197h-1.402c.067.245.271.349.524.349Zm.417-.72a.451.451 0 0 0-.461-.375c-.257 0-.432.138-.487.375h.948ZM16.745 20.434v2.6h-.48v-.22c-.134.17-.33.271-.603.271-.498 0-.907-.427-.907-.98 0-.553.41-.98.907-.98.272 0 .47.1.603.27v-.961h.48Zm-.48 1.67a.499.499 0 0 0-.513-.523.502.502 0 0 0-.517.524.5.5 0 0 0 .517.523c.297 0 .513-.211.513-.523ZM2.269 24.795h.237v.744a.758.758 0 0 1-.026.225.32.32 0 0 1-.125.165.419.419 0 0 1-.24.062c-.116 0-.205-.033-.268-.097-.063-.066-.094-.16-.095-.287l.224-.025a.313.313 0 0 0 .03.142.128.128 0 0 0 .117.064c.053 0 .09-.015.113-.045.022-.03.033-.093.033-.188v-.76ZM3.821 25.97h-.258l-.103-.266h-.47l-.098.267H2.64l.458-1.176h.252l.471 1.176Zm-.437-.464-.163-.437-.159.437h.322ZM3.95 25.97v-1.175h.232l.482.785v-.785h.22v1.176h-.238l-.474-.767v.767H3.95ZM6.307 25.761v.21h-.79a.541.541 0 0 1 .076-.225 1.49 1.49 0 0 1 .254-.282c.102-.095.164-.159.187-.193a.247.247 0 0 0 .047-.137c0-.05-.014-.09-.041-.116a.15.15 0 0 0-.112-.04.15.15 0 0 0-.112.042c-.028.028-.044.075-.048.14l-.225-.022c.013-.124.055-.213.126-.267a.424.424 0 0 1 .265-.08c.116 0 .207.03.274.093.066.063.1.14.1.233 0 .053-.01.104-.03.152a.607.607 0 0 1-.09.15 1.449 1.449 0 0 1-.147.15 2.65 2.65 0 0 0-.136.13.403.403 0 0 0-.046.062h.448ZM6.842 24.79c.114 0 .203.04.268.122.076.096.115.256.115.479 0 .222-.039.382-.116.48a.321.321 0 0 1-.267.12.338.338 0 0 1-.277-.132c-.07-.088-.105-.245-.105-.47 0-.222.038-.381.116-.478a.321.321 0 0 1 .266-.12Zm0 .187a.112.112 0 0 0-.073.027c-.021.017-.038.048-.05.093a1.287 1.287 0 0 0-.023.294c0 .138.007.233.02.285.015.05.032.085.053.102a.114.114 0 0 0 .073.026.114.114 0 0 0 .073-.026c.022-.017.038-.049.05-.094.016-.057.023-.155.023-.293a1.27 1.27 0 0 0-.02-.284c-.014-.052-.032-.086-.053-.103a.109.109 0 0 0-.073-.027ZM8.139 25.761v.21h-.792a.541.541 0 0 1 .078-.225 1.49 1.49 0 0 1 .253-.282c.102-.095.165-.159.188-.193a.247.247 0 0 0 .046-.137c0-.05-.014-.09-.04-.116a.15.15 0 0 0-.112-.04.15.15 0 0 0-.113.042c-.028.028-.044.075-.048.14l-.225-.022c.013-.124.055-.213.126-.267a.424.424 0 0 1 .265-.08c.116 0 .208.03.274.093.066.063.1.14.1.233 0 .053-.01.104-.03.152a.607.607 0 0 1-.09.15 1.447 1.447 0 0 1-.147.15 2.641 2.641 0 0 0-.136.13.404.404 0 0 0-.046.062h.449ZM8.284 25.659l.218-.027a.206.206 0 0 0 .057.128c.03.03.067.044.11.044a.151.151 0 0 0 .118-.053.204.204 0 0 0 .048-.143.191.191 0 0 0-.046-.134.146.146 0 0 0-.111-.05.395.395 0 0 0-.104.017l.025-.184c.06.002.108-.012.14-.04a.142.142 0 0 0 .048-.111.128.128 0 0 0-.036-.095.127.127 0 0 0-.093-.035.136.136 0 0 0-.1.04.189.189 0 0 0-.05.117l-.207-.036a.465.465 0 0 1 .065-.17.296.296 0 0 1 .122-.1.41.41 0 0 1 .176-.037c.11 0 .2.036.267.106a.276.276 0 0 1 .082.196c0 .103-.056.185-.17.247a.273.273 0 0 1 .223.279.353.353 0 0 1-.113.264.39.39 0 0 1-.282.109.39.39 0 0 1-.265-.092.362.362 0 0 1-.122-.24ZM9.23 25.657v-.225h.444v.225H9.23ZM10.23 24.795h.237v.744a.76.76 0 0 1-.026.225.32.32 0 0 1-.125.165.419.419 0 0 1-.24.062c-.115 0-.205-.033-.267-.097-.063-.066-.095-.16-.095-.287l.224-.025a.313.313 0 0 0 .03.142.128.128 0 0 0 .117.064c.053 0 .09-.015.112-.045.022-.03.033-.093.033-.188v-.76ZM11.783 25.97h-.259l-.103-.266h-.47l-.098.267h-.252l.459-1.176h.251l.472 1.176Zm-.438-.464-.162-.437-.16.437h.322ZM11.912 25.97v-1.175h.231l.482.785v-.785h.221v1.176h-.238l-.475-.767v.767h-.22ZM14.269 25.761v.21h-.791a.54.54 0 0 1 .077-.225c.043-.071.127-.165.254-.282a1.59 1.59 0 0 0 .187-.193.247.247 0 0 0 .046-.137c0-.05-.013-.09-.04-.116a.15.15 0 0 0-.112-.04.15.15 0 0 0-.113.042c-.028.028-.044.075-.048.14l-.225-.022c.014-.124.056-.213.126-.267a.424.424 0 0 1 .265-.08c.117 0 .208.03.274.093.067.063.1.14.1.233 0 .053-.01.104-.03.152a.606.606 0 0 1-.089.15 1.45 1.45 0 0 1-.148.15 2.63 2.63 0 0 0-.136.13.408.408 0 0 0-.045.062h.448ZM14.804 24.79c.114 0 .203.04.267.122.077.096.115.256.115.479 0 .222-.038.382-.116.48a.322.322 0 0 1-.266.12.337.337 0 0 1-.277-.132c-.07-.088-.106-.245-.106-.47 0-.222.039-.381.116-.478a.321.321 0 0 1 .267-.12Zm0 .187a.112.112 0 0 0-.073.027c-.022.017-.038.048-.05.093a1.288 1.288 0 0 0-.023.294c0 .138.007.233.02.285.014.05.032.085.053.102a.114.114 0 0 0 .073.026.114.114 0 0 0 .073-.026c.021-.017.038-.049.05-.094.015-.057.023-.155.023-.293 0-.138-.007-.233-.02-.284-.015-.052-.032-.086-.054-.103a.109.109 0 0 0-.072-.027ZM16.1 25.761v.21h-.791a.542.542 0 0 1 .077-.225c.043-.071.128-.165.254-.282.102-.095.164-.159.187-.193a.248.248 0 0 0 .047-.137c0-.05-.014-.09-.041-.116a.15.15 0 0 0-.112-.04.15.15 0 0 0-.112.042c-.028.028-.044.075-.049.14l-.225-.022c.014-.124.056-.213.127-.267a.424.424 0 0 1 .265-.08c.116 0 .207.03.274.093.066.063.1.14.1.233 0 .053-.01.104-.03.152a.61.61 0 0 1-.09.15 1.45 1.45 0 0 1-.147.15 2.612 2.612 0 0 0-.136.13.401.401 0 0 0-.046.062h.448ZM16.696 25.97v-.236h-.482v-.197l.511-.747h.19v.746h.146v.198h-.146v.237h-.219Zm0-.434v-.402l-.27.402h.27ZM7.78 27.657h.238v.637c0 .101.003.166.01.197.01.048.034.086.072.116a.257.257 0 0 0 .157.043c.067 0 .118-.014.153-.04a.165.165 0 0 0 .061-.103c.007-.04.01-.106.01-.2v-.65h.239v.618c0 .14-.007.24-.02.299a.329.329 0 0 1-.21.244.61.61 0 0 1-.226.035.662.662 0 0 1-.256-.039.373.373 0 0 1-.137-.1.327.327 0 0 1-.067-.131 1.426 1.426 0 0 1-.023-.299v-.627ZM8.91 28.45l.232-.022a.283.283 0 0 0 .085.17c.042.037.1.055.172.055.077 0 .134-.016.173-.048a.145.145 0 0 0 .059-.114.104.104 0 0 0-.025-.07.19.19 0 0 0-.086-.052 2.888 2.888 0 0 0-.19-.05.647.647 0 0 1-.268-.117.306.306 0 0 1-.058-.404.321.321 0 0 1 .147-.12.592.592 0 0 1 .232-.04c.148 0 .259.032.333.096a.342.342 0 0 1 .119.26l-.238.01c-.01-.06-.032-.104-.066-.13-.033-.027-.083-.04-.15-.04a.272.272 0 0 0-.163.042.086.086 0 0 0-.037.073.09.09 0 0 0 .035.072c.03.025.103.05.219.078.115.027.2.056.256.085a.323.323 0 0 1 .177.306.346.346 0 0 1-.215.321.674.674 0 0 1-.256.043c-.15 0-.263-.034-.343-.103a.45.45 0 0 1-.143-.3ZM11.13 28.833h-.259l-.102-.267h-.471l-.097.267h-.252l.458-1.176h.252l.471 1.176Zm-.438-.465-.162-.436-.159.436h.321Z"></path></g><defs><clipPath id="dla"><path d="M0 0h18.8v32H0z"></path></clipPath></defs></symbol></defs><use xlink:href="#icon-great-place-to-work-mono" fill-opacity="0.6" fill="#FFFFFF"></use></svg>